<?xml version="1.0" encoding="utf-8"?>
<svg viewBox="200 0 500 500" xmlns="http://www.w3.org/2000/svg">
  <g transform="matrix(1, 0, 0, 1, -49.833881, -61.499969)">
    <svg xmlns="http://www.w3.org/2000/svg" version="1.1" viewBox="0 0 396 247" data-background-color="#333333" preserveAspectRatio="xMidYMid meet" height="623" width="1000">
      <g id="tight-bounds" transform="matrix(1,0,0,1,0.2400000000000091,-0.09999999999999432)">
        <svg viewBox="0 0 395.52 247.2" height="247.2" width="395.52">
          <g>
            <svg xmlns="http://www.w3.org/2000/svg" version="1.1"/>
          </g>
          <g>
            <svg viewBox="0 0 395.52 247.2" height="247.2" width="395.52">
              <g>
                <path d="M0 0" fill="#7fc37e" data-fill-palette-color="tertiary"/>
              </g>
              <g transform="matrix(1,0,0,1,121.96887372013651,37.08)">
                <svg viewBox="0 0 151.58225255972695 173.04" height="173.04" width="151.58225255972695">
                  <g>
                    <svg viewBox="0 0 151.58225255972695 173.04" height="173.04" width="151.58225255972695">
                      <g>
                        <svg viewBox="0 0 151.58225255972695 173.04" height="173.04" width="151.58225255972695">
                          <g>
                            <svg viewBox="0 0 151.58225255972695 173.04" height="173.04" width="151.58225255972695">
                              <g>
                                <svg viewBox="0 0 151.58225255972695 173.04" height="173.04" width="151.58225255972695">
                                  <g>
                                    <svg viewBox="0 0 151.58225255972695 173.04" height="173.04" width="151.58225255972695">
                                      <g transform="matrix(1,0,0,1,0,0)">
                                        <svg width="151.58225255972695" viewBox="1.7 -37.25 38.5 43.95000000000001" height="173.04" data-palette-color="#7fc37e">
                                          <path d="M37.2-1.85L30.75 3.55Q29 5.05 25.85 5.88 22.7 6.7 17.75 6.7L17.75 6.7Q12.85 6.7 9.73 5.68 6.6 4.65 4.83 2.95 3.05 1.25 2.38-0.95 1.7-3.15 1.7-5.5L1.7-5.5 1.7-21.05Q1.7-23.35 2.35-25.33 3-27.3 4.7-28.7L4.7-28.7 11.2-34.1Q12.95-35.6 16.07-36.43 19.2-37.25 24.2-37.25L24.2-37.25Q29.1-37.25 32.23-36.45 35.35-35.65 37.13-34.23 38.9-32.8 39.55-30.83 40.2-28.85 40.2-26.5L40.2-26.5 40.2-9.45Q40.2-7.15 39.55-5.2 38.9-3.25 37.2-1.85L37.2-1.85ZM39.7-9.45L39.7-9.45 39.7-26.5Q39.7-28.8 39.03-30.68 38.35-32.55 36.63-33.9 34.9-35.25 31.88-36 28.85-36.75 24.2-36.75L24.2-36.75Q19.55-36.75 16.5-36 13.45-35.25 11.73-33.9 10-32.55 9.33-30.68 8.65-28.8 8.65-26.5L8.65-26.5 8.65-9.45Q8.65-7.15 9.33-5.28 10-3.4 11.73-2.08 13.45-0.75 16.5 0 19.55 0.75 24.2 0.75L24.2 0.75Q28.85 0.75 31.88 0 34.9-0.75 36.63-2.08 38.35-3.4 39.03-5.28 39.7-7.15 39.7-9.45ZM34.25-25.35L34.25-10.6Q34.25-7.6 32.1-5.73 29.95-3.85 24.1-3.85L24.1-3.85Q18.25-3.85 16.15-5.73 14.05-7.6 14.05-10.6L14.05-10.6 14.05-25.35Q14.05-28.35 16.15-30.23 18.25-32.1 24.1-32.1L24.1-32.1Q29.95-32.1 32.1-30.23 34.25-28.35 34.25-25.35L34.25-25.35ZM14.55-25.35L14.55-10.6Q14.55-7.8 16.55-6.08 18.55-4.35 24.1-4.35L24.1-4.35Q29.65-4.35 31.7-6.08 33.75-7.8 33.75-10.6L33.75-10.6 33.75-25.35Q33.75-28.15 31.7-29.88 29.65-31.6 24.1-31.6L24.1-31.6Q18.55-31.6 16.55-29.88 14.55-28.15 14.55-25.35L14.55-25.35ZM20-11.25L20-11.25 20-24.7Q20-25.65 20.75-26.33 21.5-27 24.2-27L24.2-27Q26.9-27 27.65-26.33 28.4-25.65 28.4-24.7L28.4-24.7 28.4-11.25Q28.4-10.25 27.65-9.58 26.9-8.9 24.2-8.9L24.2-8.9Q21.5-8.9 20.75-9.58 20-10.25 20-11.25ZM20.5-20.7L20.5-11.25Q20.5-10.75 20.7-10.38 20.9-10 21.45-9.75L21.45-9.75 21.45-19.25Q21.45-19.75 21.25-20.13 21.05-20.5 20.5-20.7L20.5-20.7Z" opacity="1" transform="matrix(1,0,0,1,0,0)" fill="#7fc37e" class="undefined-text-0" data-fill-palette-color="primary" id="text-0"/>
                                        </svg>
                                      </g>
                                    </svg>
                                  </g>
                                </svg>
                              </g>
                            </svg>
                          </g>
                          <g/>
                        </svg>
                      </g>
                    </svg>
                  </g>
                </svg>
              </g>
            </svg>
          </g>
        </svg>
        <rect width="395.52" height="247.2" fill="none" stroke="none" visibility="hidden"/>
      </g>
    </svg>
  </g>
</svg>